<?xml version="1.0" encoding="utf-8"?>
<!-- Generator: Adobe Illustrator 22.0.1, SVG Export Plug-In . SVG Version: 6.00 Build 0)  -->
<svg version="1.1" xmlns="http://www.w3.org/2000/svg" xmlns:xlink="http://www.w3.org/1999/xlink" x="0px" y="0px"
	 viewBox="0 0 443.9 203.4" style="enable-background:new 0 0 443.9 203.4;" xml:space="preserve">
<style type="text/css">
	.st0{display:none;}
	.st1{display:inline;fill:#FFFFFF;}
	.st2{fill:#F3F3F3;}
</style>
<g id="white_background" class="st0">
	<rect x="-24.2" y="-15.9" class="st1" width="488.7" height="238"/>
</g>
<g id="Layer_1">
	<path class="st2" d="M49.8,49.1c-10.7,0-21.5,6.6-21.5,21.3v34.1c0,14.8,10.8,21.4,21.5,21.4c13,0,21-7.8,21-20.5V98
		c0-1.2-0.9-2.1-2.1-2.1h-8.9c-1.2,0-2.1,0.9-2.1,2.1v7.3c0,5.1-2.6,7.6-7.6,7.6c-5,0-7.7-2.6-7.7-7.2V69.3c0-4.7,2.7-7.2,7.7-7.2
		c6.3,0,7.6,4.2,7.6,7.6v7.3c0,1.2,0.9,2.1,2.1,2.1h8.9c1.2,0,2.1-0.9,2.1-2.1v-7.5C70.8,57,62.7,49.1,49.8,49.1z"/>
	<path class="st2" d="M108.6,114.2c-0.5,0-0.7-0.1-0.7-0.1c0,0-0.1-0.2-0.1-0.6l-0.4-25.9c-0.2-11.3-6.1-17.4-16.7-17.2
		c-9.9,0.2-16.2,6.5-16,16.2l0,2.8c0,1.2,1,2.1,2.1,2.1l8.3-0.1c1.2,0,2.1-1,2.1-2.1l0-2.5c-0.1-3.7,0.5-4.4,3.8-4.5
		c2.7,0,3.9,1.1,3.9,3.9l0.1,5c-10.5,2.1-21.8,6.2-21.6,18.4l0,1.1c0.1,8.9,5.8,14.6,14.5,14.5c4-0.1,7.8-1.5,10.7-4.1
		c1.4,2.5,4,3.9,7.6,3.8l2.6,0c1.2,0,2.1-1,2.1-2.1l-0.1-6.6C110.7,115.1,109.7,114.2,108.6,114.2z M95.2,108.5
		c0.1,3.3-3.1,5.4-6.1,5.4c-2.9,0-3.4-2.2-3.4-3.6l0-1.3c0-1.6-0.1-5.6,9.4-7.5L95.2,108.5z"/>
	<path class="st2" d="M137.6,71c-5.3-1-9.3,0.2-12.2,3.6l-0.1-1.4c-0.1-1.1-1-1.9-2.1-1.9h-7.3c-1.2,0-2.1,0.9-2.1,2.1v48.9
		c0,1.2,0.9,2.1,2.1,2.1h8.8c1.2,0,2.1-0.9,2.1-2.1V88c0-1.7,0.6-2.5,1.1-2.9c1-0.9,3.4-1.8,9.1-1.1c0.6,0.1,1.2-0.1,1.6-0.5
		c0.4-0.4,0.7-1,0.7-1.6v-8.9C139.3,72.1,138.6,71.2,137.6,71z"/>
	<path class="st2" d="M163.5,70.5c-3.4,0-6.6,1.2-9.2,3.3V52.7c0-1.2-0.9-2.1-2.1-2.1h-8.7c-1.2,0-2.1,0.9-2.1,2.1v69.6
		c0,1.2,0.9,2.1,2.1,2.1h5.7c1,0,1.8-0.7,2-1.7l0.3-1.6c2.5,2.6,6.1,4.1,10.4,4.1c8.8,0,14.6-6.6,14.6-16.4V86.8
		C176.6,76.9,171.5,70.5,163.5,70.5z M163.9,88.8v18.8c0,5.7-2.4,6.5-4.7,6.5c-2.3,0-4.9-1.6-4.9-6V88.2c0-3.8,1.9-6,5.1-6
		C161.7,82.3,163.9,83.1,163.9,88.8z"/>
	<path class="st2" d="M198.3,70.5c-10.4,0-17.5,7.4-17.5,18.5v18c0,11.1,6.8,18.3,17.5,18.3c10.5,0,17.3-7.2,17.3-18.3V89
		C215.6,77.7,208.8,70.5,198.3,70.5z M193.7,87.3c0-1.9,0.6-5.1,4.6-5.1c4,0,4.6,3.2,4.6,5.1v21.1c0,3.4-1.5,5.1-4.6,5.1
		c-3.1,0-4.6-1.7-4.6-5.1V87.3z"/>
	<path class="st2" d="M242.3,70.6c-4.1,0-7.3,1.6-9.9,4.9l-0.1-2.3c-0.1-1.1-1-2-2.1-2h-7.3c-1.2,0-2.1,0.9-2.1,2.1v48.9
		c0,1.2,0.9,2.1,2.1,2.1h8.8c1.2,0,2.1-0.9,2.1-2.1v-32c0-2.5,2.2-8.5,5.8-8.5c3.4,0,3.8,3.3,3.8,4.7v35.7c0,1.2,0.9,2.1,2.1,2.1
		h8.9c1.2,0,2.1-0.9,2.1-2.1V86.2C256.3,76.6,250.9,70.6,242.3,70.6z"/>
	<path class="st2" d="M297.6,86.4c3.6-2.4,5.4-6.6,5.4-12.5v-5.6c0-11.6-6.3-17.7-18.2-17.7h-20.2c-1.2,0-2.1,0.9-2.1,2.1v69.6
		c0,1.2,0.9,2.1,2.1,2.1h20.7c12,0,18.4-6.1,18.4-17.7v-7.4C303.7,93.3,301.6,88.9,297.6,86.4z M289.1,75.4c0,4-1.6,5.8-5.3,5.8
		h-7.1V63.4h8.3c2.5,0,4.2,0.8,4.2,4.7V75.4z M276.7,93.1h7.6c3.7,0,5.3,1.8,5.3,5.8v8.2c0,3.3-1.2,4.6-4.3,4.6h-8.7V93.1z"/>
	<path class="st2" d="M332.3,71c-5.3-1-9.3,0.2-12.2,3.6l-0.1-1.4c-0.1-1.1-1-1.9-2.1-1.9h-7.3c-1.2,0-2.1,0.9-2.1,2.1v48.9
		c0,1.2,0.9,2.1,2.1,2.1h8.8c1.2,0,2.1-0.9,2.1-2.1V88c0-1.7,0.6-2.5,1.1-2.9c1-0.9,3.4-1.8,9.1-1.1c0.6,0.1,1.2-0.1,1.6-0.5
		c0.4-0.4,0.7-1,0.7-1.6v-8.9C334,72.1,333.3,71.2,332.3,71z"/>
	<path class="st2" d="M338.5,67.6h8.2c1.2,0,2.1-0.9,2.1-2.1v-9.3c0-1.2-0.9-2.1-2.1-2.1h-8.2c-1.2,0-2.1,0.9-2.1,2.1v9.3
		C336.5,66.7,337.4,67.6,338.5,67.6z"/>
	<path class="st2" d="M347,71.3h-8.8c-1.2,0-2.1,0.9-2.1,2.1v48.9c0,1.2,0.9,2.1,2.1,2.1h8.8c1.2,0,2.1-0.9,2.1-2.1V73.4
		C349.1,72.2,348.2,71.3,347,71.3z"/>
	<path class="st2" d="M371.5,70.5c-10.5,0-17.3,7.3-17.3,18.5v18c0,11.1,6.8,18.3,17.3,18.3c10.4,0,16.6-6.8,16.6-18.1V105
		c0-1.2-0.9-2.1-2.1-2.1h-7.7c-1.2,0-2.1,0.9-2.1,2.1v3.3c0,3.5-1.5,5.3-4.6,5.3c-3.1,0-4.7-1.8-4.7-5.3v-7.8H386
		c1.2,0,2.1-0.9,2.1-2.1V89C388.1,77.6,381.7,70.5,371.5,70.5z M366.9,91.3v-3.8c0-2.4,0.8-5.3,4.7-5.3c3.8,0,4.6,2.9,4.6,5.3v3.8
		H366.9z"/>
	<path class="st2" d="M413.6,50.6h-3.4c-9.6,0-15,6.6-15,18.2v2.5h-3.6c-1.2,0-2.1,0.9-2.1,2.1v7.4c0,1.2,0.9,2.1,2.1,2.1h3.6v39.4
		c0,1.2,0.9,2.1,2.1,2.1h8.8c1.2,0,2.1-0.9,2.1-2.1V82.9h4.7c1.2,0,2.1-0.9,2.1-2.1v-7.4c0-1.2-0.9-2.1-2.1-2.1h-5.1V67
		c0-4.4,1.8-4.8,3.7-4.8h2.3c1.2,0,2.1-0.9,2.1-2.1v-7.4C415.7,51.5,414.7,50.6,413.6,50.6z"/>
	<g>
		<g>
			<path class="st2" d="M114.8,139.2c1.5,0,2.6,0.5,3.7,1.4c0.1,0.1,0.1,0.3,0,0.4l-0.9,1c-0.1,0.1-0.3,0.1-0.4,0
				c-0.6-0.6-1.5-0.9-2.3-0.9c-1.9,0-3.4,1.6-3.4,3.5c0,1.9,1.5,3.5,3.4,3.5c0.9,0,1.7-0.3,2.3-0.9c0.1-0.1,0.3-0.1,0.4,0l0.9,1
				c0.1,0.1,0.1,0.3,0,0.4c-1,1-2.3,1.5-3.7,1.5c-3,0-5.5-2.4-5.5-5.4S111.8,139.2,114.8,139.2z"/>
			<path class="st2" d="M131,139.6c0-0.2,0.1-0.3,0.3-0.3h1.4c0.2,0,0.3,0.1,0.3,0.3v8.5h3.9c0.2,0,0.3,0.1,0.3,0.3v1.2
				c0,0.2-0.1,0.3-0.3,0.3h-5.5c-0.2,0-0.3-0.1-0.3-0.3V139.6z"/>
			<path class="st2" d="M149.3,139.6c0-0.2,0.1-0.3,0.3-0.3h6.2c0.2,0,0.3,0.1,0.3,0.3v1.2c0,0.2-0.1,0.3-0.3,0.3h-4.5v2.5h3.7
				c0.2,0,0.3,0.1,0.3,0.3v1.3c0,0.2-0.1,0.3-0.3,0.3h-3.7v2.6h4.5c0.2,0,0.3,0.1,0.3,0.3v1.2c0,0.2-0.1,0.3-0.3,0.3h-6.2
				c-0.2,0-0.3-0.1-0.3-0.3V139.6z"/>
			<path class="st2" d="M167.4,149.5l4.7-10.2c0-0.1,0.1-0.2,0.3-0.2h0.2c0.2,0,0.2,0.1,0.3,0.2l4.7,10.2c0.1,0.2,0,0.4-0.3,0.4
				h-1.3c-0.2,0-0.3-0.1-0.4-0.3l-0.7-1.6h-4.5l-0.7,1.6c-0.1,0.2-0.2,0.3-0.4,0.3h-1.3C167.4,149.9,167.3,149.7,167.4,149.5z
				 M173.9,146.3l-1.5-3.3h0l-1.5,3.3H173.9z"/>
			<path class="st2" d="M189.3,139.6c0-0.2,0.1-0.3,0.3-0.3h4.3c1.8,0,3.3,1.5,3.3,3.2c0,1.4-0.9,2.5-2.2,3.1l2.1,3.8
				c0.1,0.2,0,0.4-0.3,0.4h-1.6c-0.1,0-0.2-0.1-0.2-0.1l-2-4h-1.7v3.9c0,0.2-0.1,0.3-0.3,0.3h-1.4c-0.2,0-0.3-0.1-0.3-0.3V139.6z
				 M193.8,144.2c0.8,0,1.5-0.7,1.5-1.5c0-0.8-0.7-1.5-1.5-1.5h-2.5v3H193.8z"/>
			<path class="st2" d="M228.6,139.2c3,0,5.4,2.4,5.4,5.5s-2.4,5.4-5.4,5.4c-3,0-5.4-2.4-5.4-5.4S225.6,139.2,228.6,139.2z
				 M228.6,148.1c1.9,0,3.5-1.6,3.5-3.5c0-1.9-1.6-3.5-3.5-3.5c-1.9,0-3.5,1.6-3.5,3.5C225.1,146.6,226.7,148.1,228.6,148.1z"/>
			<path class="st2" d="M246.6,139.5c0-0.2,0.1-0.3,0.3-0.3h0.4l6.3,6.7h0v-6.2c0-0.2,0.1-0.3,0.3-0.3h1.4c0.2,0,0.3,0.1,0.3,0.3
				v10.2c0,0.2-0.1,0.3-0.3,0.3h-0.4l-6.3-6.9h0v6.5c0,0.2-0.1,0.3-0.3,0.3h-1.4c-0.2,0-0.3-0.1-0.3-0.3V139.5z"/>
			<path class="st2" d="M287.5,139.2c1.5,0,2.6,0.5,3.7,1.4c0.1,0.1,0.1,0.3,0,0.4l-0.9,1c-0.1,0.1-0.3,0.1-0.4,0
				c-0.6-0.6-1.5-0.9-2.3-0.9c-1.9,0-3.4,1.6-3.4,3.5c0,1.9,1.5,3.5,3.4,3.5c0.9,0,1.7-0.3,2.3-0.9c0.1-0.1,0.3-0.1,0.4,0l0.9,1
				c0.1,0.1,0.1,0.3,0,0.4c-1,1-2.3,1.5-3.7,1.5c-3,0-5.5-2.4-5.5-5.4S284.5,139.2,287.5,139.2z"/>
			<path class="st2" d="M303.8,139.6c0-0.2,0.1-0.3,0.3-0.3h1.4c0.2,0,0.3,0.1,0.3,0.3v8.5h3.9c0.2,0,0.3,0.1,0.3,0.3v1.2
				c0,0.2-0.1,0.3-0.3,0.3H304c-0.2,0-0.3-0.1-0.3-0.3V139.6z"/>
			<path class="st2" d="M322,139.6c0-0.2,0.1-0.3,0.3-0.3h1.4c0.2,0,0.3,0.1,0.3,0.3v10c0,0.2-0.1,0.3-0.3,0.3h-1.4
				c-0.2,0-0.3-0.1-0.3-0.3V139.6z"/>
			<path class="st2" d="M338.4,139.4c0-0.1,0.1-0.2,0.3-0.2h0.2c0.1,0,0.2,0.1,0.3,0.2l3.3,7.1c0,0,0,0,0,0l3.3-7.1
				c0-0.1,0.1-0.2,0.3-0.2h0.2c0.2,0,0.3,0.1,0.3,0.2l1.8,10.2c0,0.2-0.1,0.3-0.3,0.3h-1.4c-0.1,0-0.3-0.1-0.3-0.2l-0.9-5.7
				c0,0,0,0,0,0l-2.6,5.9c0,0.1-0.1,0.2-0.3,0.2h-0.3c-0.1,0-0.2-0.1-0.3-0.2l-2.7-5.9c0,0,0,0,0,0l-0.9,5.7c0,0.1-0.1,0.2-0.3,0.2
				h-1.4c-0.2,0-0.3-0.1-0.3-0.3L338.4,139.4z"/>
			<path class="st2" d="M359.7,149.5l4.7-10.2c0-0.1,0.1-0.2,0.3-0.2h0.2c0.2,0,0.2,0.1,0.3,0.2l4.7,10.2c0.1,0.2,0,0.4-0.3,0.4
				h-1.3c-0.2,0-0.3-0.1-0.4-0.3L367,148h-4.5l-0.7,1.6c-0.1,0.2-0.2,0.3-0.4,0.3H360C359.7,149.9,359.6,149.7,359.7,149.5z
				 M366.2,146.3l-1.5-3.3h0l-1.5,3.3H366.2z"/>
			<path class="st2" d="M382.6,141.2h-2.3c-0.2,0-0.3-0.1-0.3-0.3v-1.2c0-0.2,0.1-0.3,0.3-0.3h6.6c0.2,0,0.3,0.1,0.3,0.3v1.2
				c0,0.2-0.1,0.3-0.3,0.3h-2.3v8.5c0,0.2-0.1,0.3-0.3,0.3h-1.4c-0.2,0-0.3-0.1-0.3-0.3V141.2z"/>
			<path class="st2" d="M399.3,139.6c0-0.2,0.1-0.3,0.3-0.3h6.2c0.2,0,0.3,0.1,0.3,0.3v1.2c0,0.2-0.1,0.3-0.3,0.3h-4.5v2.5h3.7
				c0.2,0,0.3,0.1,0.3,0.3v1.3c0,0.2-0.1,0.3-0.3,0.3h-3.7v2.6h4.5c0.2,0,0.3,0.1,0.3,0.3v1.2c0,0.2-0.1,0.3-0.3,0.3h-6.2
				c-0.2,0-0.3-0.1-0.3-0.3V139.6z"/>
		</g>
	</g>
</g>
</svg>
