<?xml version="1.0" encoding="utf-8"?>
<!-- Generator: Adobe Illustrator 22.0.1, SVG Export Plug-In . SVG Version: 6.00 Build 0)  -->
<svg version="1.1" xmlns="http://www.w3.org/2000/svg" xmlns:xlink="http://www.w3.org/1999/xlink" x="0px" y="0px"
	 viewBox="0 0 51.5 51.5" style="enable-background:new 0 0 51.5 51.5;" xml:space="preserve">
<style type="text/css">
	.st0{display:none;}
	.st1{display:inline;fill:#FFFFFF;}
	.st2{fill:#F3F3F3;}
</style>
<g id="Layer_2" class="st0">
	<rect x="-45" y="-19.6" class="st1" width="157.9" height="102.6"/>
</g>
<g id="Layer_1">
	<path class="st2" d="M16.1,10.6c-4.2,0-8.5,2.5-8.5,8.1v13c0,5.6,4.3,8.2,8.5,8.2c5.1,0,8.3-3,8.3-7.8v-2.9c0-0.4-0.4-0.8-0.8-0.8
		h-3.5c-0.5,0-0.8,0.4-0.8,0.8V32c0,1.9-1,2.9-3,2.9c-2,0-3.1-1-3.1-2.8V18.3c0-1.8,1.1-2.8,3.1-2.8c2.5,0,3,1.6,3,2.9v2.8
		c0,0.4,0.4,0.8,0.8,0.8h3.5c0.5,0,0.8-0.4,0.8-0.8v-2.9C24.4,13.6,21.2,10.6,16.1,10.6z"/>
	<path class="st2" d="M40.8,24.8c1.4-0.9,2.1-2.5,2.1-4.8v-2.2c0-4.4-2.5-6.7-7.2-6.7h-8c-0.5,0-0.8,0.4-0.8,0.8v26.6
		c0,0.4,0.4,0.8,0.8,0.8h8.2c4.8,0,7.3-2.3,7.3-6.7v-2.8C43.2,27.4,42.3,25.8,40.8,24.8z M37.4,20.6c0,1.5-0.6,2.2-2.1,2.2h-2.8V16
		h3.3c1,0,1.7,0.3,1.7,1.8V20.6z M32.5,27.4h3c1.5,0,2.1,0.7,2.1,2.2v3.1c0,1.2-0.5,1.8-1.7,1.8h-3.4V27.4z"/>
</g>
</svg>
